<?xml version="1.0" encoding="UTF-8"?>
<svg width="100%" viewBox="0 0 406 124" version="1.1" xmlns="http://www.w3.org/2000/svg" xmlns:xlink="http://www.w3.org/1999/xlink">
    <defs>
        <linearGradient x1="50%" y1="-10.424156%" x2="50%" y2="100%" id="lg1">
            <stop stop-color="#343D55" offset="0%"></stop>
            <stop stop-color="#151925" offset="100%"></stop>
        </linearGradient>
        <linearGradient x1="50%" y1="-10.424156%" x2="50%" y2="100%" id="lg2">
            <stop stop-color="#343D55" offset="0%"></stop>
            <stop stop-color="#151925" offset="100%"></stop>
        </linearGradient>
        <linearGradient x1="50%" y1="-18.5745431%" x2="50%" y2="100%" id="lg3">
            <stop stop-color="#C1C1C1" offset="0%"></stop>
            <stop stop-color="#8E8E8E" offset="100%"></stop>
        </linearGradient>
        <linearGradient x1="50%" y1="0%" x2="50%" y2="100%" id="lg4">
            <stop stop-color="#32A3FF" offset="0%"></stop>
            <stop stop-color="#176AFF" offset="100%"></stop>
        </linearGradient>
        <linearGradient x1="50%" y1="-10.424156%" x2="50%" y2="100%" id="lg5">
            <stop stop-color="#343D55" offset="0%"></stop>
            <stop stop-color="#151925" offset="100%"></stop>
        </linearGradient>
        <linearGradient x1="50%" y1="-10.424156%" x2="50%" y2="100%" id="lg6">
            <stop stop-color="#343D55" offset="0%"></stop>
            <stop stop-color="#151925" offset="100%"></stop>
        </linearGradient>
    </defs>
    <g stroke="none" stroke-width="1" fill="none" fill-rule="evenodd">
        <g transform="translate(-934.000000, -94.000000)">
            <g transform="translate(840.000000, 0.000000)">
                <g transform="translate(100.000000, 100.000000)">
                    <g transform="translate(150, 3)" fill-rule="nonzero">
                        <path d="M34.0773984,104.500813 C44.4487805,104.500813 54.8201626,99.4458537 60.0494309,90.2074797 L50.636748,83.4094309 C47.1505691,88.5515447 41.8341463,92.9092683 33.9030894,92.9092683 C22.2243902,92.9092683 13.9447154,83.5837398 13.9447154,71.3821138 C13.9447154,59.1804878 22.2243902,49.8549593 33.9030894,49.8549593 C41.8341463,49.8549593 47.2377236,54.2998374 50.636748,59.4419512 L60.0494309,52.6439024 C54.8201626,43.318374 44.4487805,38.2634146 34.0773984,38.2634146 C15.6878049,38.2634146 0,52.8182114 0,71.3821138 C0,89.9460163 15.6878049,104.500813 34.0773984,104.500813 Z M81.3166506,104.065041 L86.197301,91.7762602 L112.169334,91.7762602 L117.049984,104.065041 L130.733236,104.065041 L104.761203,38.699187 L93.6054311,38.699187 L67.6333986,104.065041 L81.3166506,104.065041 Z M107.462992,80.1847154 L90.9036425,80.1847154 L99.1833173,59.4419512 L107.462992,80.1847154 Z M165.073626,104.849431 C177.362407,104.849431 188.518179,98.8357724 188.518179,86.024065 C188.518179,75.2169106 179.279805,70.0747967 166.729561,65.4556098 C158.014114,62.2308943 154.702244,59.7034146 154.702244,55.7814634 C154.702244,50.2907317 160.977366,49.5934959 163.243382,49.5934959 C170.651513,49.5934959 177.711025,54.2126829 180.761431,57.0887805 L189.128261,48.2861789 C183.288911,42.2725203 174.050537,38.0019512 163.330537,38.0019512 C151.913301,38.0019512 140.757529,44.1899187 140.757529,56.0429268 C140.757529,66.6757724 152.000456,71.6435772 159.147122,74.7811382 C167.775415,78.615935 174.573464,80.2718699 174.573464,86.024065 C174.573464,91.0790244 169.779968,93.2578862 164.202082,93.2578862 C156.793952,93.2578862 150.257366,87.9414634 146.596878,84.3681301 L137.445659,93.4321951 C144.418017,100.92748 154.440781,104.849431 165.073626,104.849431 Z M230.528163,104.065041 L230.528163,50.2907317 L248.569139,50.2907317 L248.569139,38.699187 L198.455318,38.699187 L198.455318,50.2907317 L216.583448,50.2907317 L216.583448,104.065041 L230.528163,104.065041 Z" id="CAST" fill="url(#lg1)"></path>
                        <path d="M10.4008789,26.4980428 L10.4008789,0 L4.96910569,0 L4.96910569,26.4980428 L10.4008789,26.4980428 Z M21.7333872,26.4980428 L21.7333872,16.1139907 C21.7333872,13.4478152 22.6722122,12.3252149 24.8387314,12.3252149 C26.9330333,12.3252149 27.9440757,13.4478152 27.9440757,16.1139907 L27.9440757,26.4980428 L33.2881564,26.4980428 L33.2520478,15.7631781 C33.2520478,10.7816396 31.1938545,8.43119542 26.9330333,8.43119542 C25.0192747,8.43119542 22.8888641,9.16790182 21.7333872,10.6062334 L21.7333872,8.60660171 L16.3893064,8.60660171 L16.3893064,26.4980428 L21.7333872,26.4980428 Z M45.433701,27.100271 L45.433701,13.1732443 L49.5366,13.1732443 L49.5366,8.79412768 L45.433701,8.79412768 L45.433701,7.14298534 C45.433701,5.3841598 46.2051863,4.37911664 47.4676167,4.37911664 C48.2741695,4.37911664 49.0456548,4.73806063 49.5366,5.13289901 L49.5366,1.57935354 C48.8703173,0.789676771 47.4676167,-1.42108547e-14 45.5389035,-1.42108547e-14 C42.2776248,-1.42108547e-14 39.9982364,2.22545272 39.9982364,7.46603493 L39.9982364,8.79412768 L38.0695232,8.79412768 L38.0695232,13.1732443 L39.9982364,13.1732443 L39.9982364,27.100271 L45.433701,27.100271 Z M57.6373837,5.4200542 C59.1893189,5.4200542 60.3532703,4.22390431 60.3532703,2.69133726 C60.3532703,1.23352958 59.1893189,1.28785871e-14 57.6373837,1.28785871e-14 C56.155991,1.28785871e-14 54.9214971,1.23352958 54.9214971,2.69133726 C54.9214971,4.22390431 56.155991,5.4200542 57.6373837,5.4200542 Z M60.3532703,26.4980428 L60.3532703,8.43119542 L54.9214971,8.43119542 L54.9214971,26.4980428 L60.3532703,26.4980428 Z M71.6857786,26.4980428 L71.6857786,16.1139907 C71.6857786,13.4478152 72.6246036,12.3252149 74.7911228,12.3252149 C76.8854248,12.3252149 77.8964671,13.4478152 77.8964671,16.1139907 L77.8964671,26.4980428 L83.2405479,26.4980428 L83.2044392,15.7631781 C83.2044392,10.7816396 81.1462459,8.43119542 76.8854248,8.43119542 C74.9716661,8.43119542 72.8412555,9.16790182 71.6857786,10.6062334 L71.6857786,8.60660171 L66.3416978,8.60660171 L66.3416978,26.4980428 L71.6857786,26.4980428 Z M91.3413316,5.4200542 C92.8932668,5.4200542 94.0572182,4.22390431 94.0572182,2.69133726 C94.0572182,1.23352958 92.8932668,1.28785871e-14 91.3413316,1.28785871e-14 C89.8599389,1.28785871e-14 88.625445,1.23352958 88.625445,2.69133726 C88.625445,4.22390431 89.8599389,5.4200542 91.3413316,5.4200542 Z M94.0572182,26.4980428 L94.0572182,8.43119542 L88.625445,8.43119542 L88.625445,26.4980428 L94.0572182,26.4980428 Z M106.625503,27.100271 C108.571741,27.100271 109.633325,26.6745096 110.305662,26.2487483 L110.305662,22.736217 C108.005562,23.5522596 106.873206,22.4523761 106.873206,19.6849273 L106.873206,13.1565863 L110.305662,13.1565863 L110.305662,8.82801248 L106.873206,8.82801248 L106.873206,4.21559771 L101.388353,4.21559771 L101.388353,8.82801248 L99.4421153,8.82801248 L99.4421153,13.1565863 L101.388353,13.1565863 L101.388353,20.0752085 C101.388353,25.2553051 103.334591,27.100271 106.625503,27.100271 Z M120.318371,32.5203252 C124.044807,32.5203252 125.478052,30.5759111 128.380373,23.4824006 L134.4,8.43119542 L128.882008,8.43119542 L124.76143,19.9896568 L120.60502,8.43119542 L115.087028,8.43119542 L121.142487,23.8424773 C122.074096,27.119175 120.820007,28.1633974 119.63758,28.1633974 C118.777633,28.1633974 117.631038,27.7313054 116.663598,27.227198 L115.839482,30.7199418 C117.021909,31.9802102 119.028451,32.5203252 120.318371,32.5203252 Z" id="Infinity" fill="url(#lg2)"></path>
                    </g>
                    <g>
                        <path d="M107.496296,117.056372 C104.920649,116.787409 102.642459,115.603913 99.9024614,113.110237 C99.6730455,112.901325 98.9943196,112.233577 98.396033,111.629221 C97.5933253,110.812713 97.2895203,110.527953 97.2368529,110.527953 C97.1841854,110.527953 96.8773057,110.819093 96.0621006,111.645019 C95.4545898,112.255754 94.7572171,112.94568 94.5092535,113.173528 C91.9273575,115.556419 89.9404749,116.645029 87.5662732,116.989941 C87.3740518,117.015258 86.9680462,117.031055 86.3884362,117.027916 C85.6321473,117.027916 85.4461746,117.018397 85.089722,116.958346 C83.4779587,116.689283 82.0459691,116.050091 80.7999521,115.04695 C80.3877176,114.714595 79.5849305,113.888669 79.2873742,113.486744 C78.3172197,112.186184 77.7283062,110.765219 77.5268358,109.246229 C77.3873565,108.214612 77.3718588,107.876008 77.4307502,107.420311 C77.4462479,107.293729 77.4741437,107.024736 77.4958405,106.825373 C77.5826276,105.910809 77.8305911,104.898149 78.1777402,104.056375 C78.7883525,102.556372 79.8700886,101.211438 81.181201,100.32219 C83.4531624,98.7778856 86.3543363,98.4424424 89.2307039,99.3918114 C90.7897997,99.9044677 92.3085271,100.838019 93.9885299,102.306377 C94.6239118,102.86334 95.1725065,103.388657 96.2171274,104.442452 C96.917575,105.154484 97.1841854,105.40132 97.2368529,105.40132 C97.2925951,105.40132 97.5964001,105.113339 98.4270781,104.268406 C99.9210091,102.755745 100.702094,102.043713 101.684724,101.293716 C102.524627,100.651305 103.144536,100.258899 103.885352,99.8918094 C104.902002,99.3918104 105.751327,99.1228225 106.860915,98.9582652 C107.146073,98.9139618 107.428156,98.9013036 108.069787,98.9013036 C109.030596,98.9013036 109.436661,98.9519361 110.264264,99.1639618 C113.844164,100.088012 116.512947,103.141821 116.965431,106.825373 C116.990227,107.043723 117.027421,107.334863 117.042894,107.474104 C117.083263,107.796889 117.083263,108.22727 117.042894,108.550055 C117.027421,108.689296 116.990227,108.989925 116.965431,109.214634 C116.757736,111.002587 116.054214,112.768464 115.037563,114.056366 C113.751227,115.686141 111.680732,116.762093 109.312679,117.031055 C108.946883,117.072271 107.806251,117.088068 107.496296,117.056372 Z M87.4642801,113.13021 C88.8928629,112.940221 90.2736961,112.174274 91.9160452,110.662349 C92.2900509,110.319135 94.269869,108.381646 94.3008262,108.330585 C94.3120751,108.310733 94.3120751,108.273852 94.2980364,108.248326 C94.2473711,108.157553 92.5769445,106.489589 92.1410245,106.095286 C90.0993821,104.245775 88.3810799,103.414634 86.6093586,103.414634 C84.7532791,103.414634 83.2093539,104.376262 82.4528654,106.004513 C82.1097719,106.744889 81.9213472,107.689497 81.9550941,108.500786 C81.9972822,109.436906 82.3178778,110.375868 82.8690772,111.15879 C83.1081132,111.502005 83.6283824,112.026767 83.9714759,112.27358 C84.4214346,112.596916 85.0823069,112.900462 85.6560042,113.045156 C86.1509587,113.172783 86.8933905,113.206823 87.4642801,113.13021 Z M108.450009,113.14343 C109.903443,112.961582 111.084128,112.205826 111.806572,110.99536 C112.335069,110.106037 112.607729,108.841635 112.495283,107.810225 C112.284424,105.872417 110.991293,104.235792 109.20061,103.641943 C108.641168,103.457259 108.346019,103.414634 107.648853,103.414634 C106.926408,103.414634 106.656538,103.457259 105.993105,103.676039 C104.874221,104.048262 103.713236,104.826795 102.307659,106.148024 C101.593671,106.821431 100.171182,108.23643 100.162726,108.284728 C100.145904,108.381335 101.841053,110.080487 102.667487,110.79651 C104.289501,112.203007 105.683833,112.933214 107.114778,113.126427 C107.485851,113.177526 108.123915,113.186073 108.450009,113.14343 Z" id="Infinity" fill="url(#lg3)" fill-rule="nonzero"></path>
                        <path d="M24.4609403,112.520325 L14.6765642,112.520325 C6.57092159,112.520325 -7.83701917e-16,105.949404 0,97.843761 L0,14.6765642 C-4.5453686e-15,6.57092159 6.57092159,-3.84008814e-15 14.6765642,0 L97.843761,0 C105.949404,-1.48898238e-15 112.520325,6.57092159 112.520325,14.6765642 L112.520325,48.9218805 L112.520325,48.9218805" id="Border" stroke="url(#lg4)" stroke-width="10.7628137" stroke-linecap="round"></path>
                        <g transform="translate(57.919934, 58.318629) rotate(-30.000000) translate(-57.919934, -58.318629) translate(18.919934, 33.818629)">
                            <rect id="Sound-3" fill="url(#lg5)" transform="translate(69.268293, 34.146341) rotate(30.000000) translate(-69.268293, -34.146341) " x="61.4634146" y="31.8699187" width="15.6097561" height="4.55284553" rx="2.27642276"></rect>
                            <rect id="Sound-2" fill="url(#lg5)" x="62.1138211" y="19.1869919" width="15.6097561" height="4.55284553" rx="2.27642276"></rect>
                            <rect id="Sound-1" fill="url(#lg5)" transform="translate(69.268293, 8.780488) rotate(-30.000000) translate(-69.268293, -8.780488) " x="61.4634146" y="6.50406504" width="15.6097561" height="4.55284553" rx="2.27642276"></rect>
                            <path d="M-2.31070808e-15,28.2601626 L-2.31070808e-15,14.4467801 C-6.87892079e-06,13.0292455 1.13481412,11.8726082 2.55209177,11.8456188 C11.9994975,11.6657106 21.4469032,10.4868187 30.8943089,8.30894309 C40.1626016,6.17235773 49.2552845,3.71528457 58.1723576,0.937723615 L58.1983132,1.02105142 C58.4952496,0.928559315 58.8109437,1.09429413 58.9034358,1.39123049 C58.9685134,1.60015544 58.9066661,1.82786307 58.7448362,1.97515802 C53.1110849,7.10290609 50.2942092,13.5088817 50.2942092,21.1930849 C50.2942092,29.0272312 53.2220898,35.6260738 59.0778509,40.9896129 L58.951276,41.1278038 C59.1398437,41.3005209 59.1526931,41.5934001 58.979976,41.7819677 C58.859173,41.9138571 58.6732111,41.9643756 58.5022797,41.911739 C48.8173939,38.9293773 39.614737,36.4330524 30.8943089,34.4227642 C27.375552,33.6115981 24.6371059,32.9677522 22.6789707,32.4912265 C21.2828745,32.1514654 19.8756908,33.0078051 19.5359405,34.4039039 C19.4869317,34.6052905 19.4621639,34.8118121 19.4621639,35.0190762 L19.4621639,46.1788618 C19.4621639,47.6157002 18.2973762,48.7804878 16.8605378,48.7804878 L10.2564103,48.7804878 C8.81957188,48.7804878 7.65478424,47.6157002 7.65478424,46.1788618 L7.65478424,33.4634146 C7.65478424,32.0265763 6.4899966,30.8617886 5.05315822,30.8617886 L2.60162602,30.8617886 C1.16478764,30.8617886 2.70372453e-14,29.697001 -2.31070808e-15,28.2601626 Z" id="Megaphone" fill="url(#lg6)"></path>
                        </g>
                    </g>
                </g>
            </g>
        </g>
    </g>
</svg>